<svg width="16" height="16" version="1.1" viewBox="0 0 4.2333 4.2333" xmlns="http://www.w3.org/2000/svg"><path transform="scale(.26458)" d="m8 1.3242-5.2129 2.5098-1.2891 5.6426 3.6094 4.5234h5.7852l3.6094-4.5234-1.2891-5.6426-5.2129-2.5098zm-0.78711 1.9688 0.32422 0.38281 0.9668 1.1445v0.31055l0.13281-0.22852 1.1152-0.64258 0.42773-0.25195 0.50195 0.86328-0.42774 0.25195-0.88672 0.50977-0.86328 1.4883v0.37891 0.96484l1.1953-1.6367 1.1738-0.31055 0.48047-0.13281 0.25781 0.9668-0.47852 0.13281-0.83594 0.22266-0.79492 1.0859 0.70703 0.70703h0.78906 0.50391v1.0039h-0.50391-1.2031l-0.89258-0.89258-0.39844 0.54492v1.8477 0.49414h-1.0039v-0.49414-1.7188l-1.3184-0.75781-1.1836 1.1836-0.70898-0.70898 0.99414-0.99414-0.64648-0.37109-0.22266-0.38281-0.25-0.43555 0.86328-0.50195 0.25 0.43555 0.089844 0.14648 2.1328 1.2324v-1.4316l-1.8535-0.84961-0.3457-0.59766-0.25195-0.43555 0.86328-0.50195 0.25195 0.43555 0.19141 0.32617 1.1445 0.52344v-1.418l-0.73047-0.85547-0.31836-0.38477 0.76172-0.64844z" fill="#006b00"/></svg>
